<svg id="visual" viewBox="0 0 540 960" width="540" height="960" xmlns="http://www.w3.org/2000/svg" xmlns:xlink="http://www.w3.org/1999/xlink" version="1.1"><path d="M0 135L9 127C18 119 36 103 54 101.5C72 100 90 113 108 113C126 113 144 100 162 100C180 100 198 113 216 117.8C234 122.7 252 119.3 270 114.5C288 109.7 306 103.3 324 106.5C342 109.7 360 122.3 378 124C396 125.7 414 116.3 432 106.8C450 97.3 468 87.7 486 97.2C504 106.7 522 135.3 531 149.7L540 164L540 0L531 0C522 0 504 0 486 0C468 0 450 0 432 0C414 0 396 0 378 0C360 0 342 0 324 0C306 0 288 0 270 0C252 0 234 0 216 0C198 0 180 0 162 0C144 0 126 0 108 0C90 0 72 0 54 0C36 0 18 0 9 0L0 0Z" fill="#cdb200"></path><path d="M0 347L9 335.7C18 324.3 36 301.7 54 314.3C72 327 90 375 108 384.7C126 394.3 144 365.7 162 357.7C180 349.7 198 362.3 216 356C234 349.7 252 324.3 270 335.7C288 347 306 395 324 414.2C342 433.3 360 423.7 378 417.2C396 410.7 414 407.3 432 392.8C450 378.3 468 352.7 486 349.5C504 346.3 522 365.7 531 375.3L540 385L540 162L531 147.7C522 133.3 504 104.7 486 95.2C468 85.7 450 95.3 432 104.8C414 114.3 396 123.7 378 122C360 120.3 342 107.7 324 104.5C306 101.3 288 107.7 270 112.5C252 117.3 234 120.7 216 115.8C198 111 180 98 162 98C144 98 126 111 108 111C90 111 72 98 54 99.5C36 101 18 117 9 125L0 133Z" fill="#cda800"></path><path d="M0 510L9 490.8C18 471.7 36 433.3 54 442.8C72 452.3 90 509.7 108 528.8C126 548 144 529 162 530.7C180 532.3 198 554.7 216 549.8C234 545 252 513 270 514.7C288 516.3 306 551.7 324 569.3C342 587 360 587 378 579C396 571 414 555 432 535.7C450 516.3 468 493.7 486 498.3C504 503 522 535 531 551L540 567L540 383L531 373.3C522 363.7 504 344.3 486 347.5C468 350.7 450 376.3 432 390.8C414 405.3 396 408.7 378 415.2C360 421.7 342 431.3 324 412.2C306 393 288 345 270 333.7C252 322.3 234 347.7 216 354C198 360.3 180 347.7 162 355.7C144 363.7 126 392.3 108 382.7C90 373 72 325 54 312.3C36 299.7 18 322.3 9 333.7L0 345Z" fill="#cc9e00"></path><path d="M0 596L9 575.2C18 554.3 36 512.7 54 525.5C72 538.3 90 605.7 108 623.3C126 641 144 609 162 609C180 609 198 641 216 641C234 641 252 609 270 607.3C288 605.7 306 634.3 324 652C342 669.7 360 676.3 378 668.3C396 660.3 414 637.7 432 621.7C450 605.7 468 596.3 486 601.2C504 606 522 625 531 634.5L540 644L540 565L531 549C522 533 504 501 486 496.3C468 491.7 450 514.3 432 533.7C414 553 396 569 378 577C360 585 342 585 324 567.3C306 549.7 288 514.3 270 512.7C252 511 234 543 216 547.8C198 552.7 180 530.3 162 528.7C144 527 126 546 108 526.8C90 507.7 72 450.3 54 440.8C36 431.3 18 469.7 9 488.8L0 508Z" fill="#ca9400"></path><path d="M0 846L9 846C18 846 36 846 54 852.3C72 858.7 90 871.3 108 877.7C126 884 144 884 162 884C180 884 198 884 216 879.2C234 874.3 252 864.7 270 861.5C288 858.3 306 861.7 324 863.3C342 865 360 865 378 861.8C396 858.7 414 852.3 432 849.2C450 846 468 846 486 852.3C504 858.7 522 871.3 531 877.7L540 884L540 642L531 632.5C522 623 504 604 486 599.2C468 594.3 450 603.7 432 619.7C414 635.7 396 658.3 378 666.3C360 674.3 342 667.7 324 650C306 632.3 288 603.7 270 605.3C252 607 234 639 216 639C198 639 180 607 162 607C144 607 126 639 108 621.3C90 603.7 72 536.3 54 523.5C36 510.7 18 552.3 9 573.2L0 594Z" fill="#c88b00"></path><path d="M0 961L9 961C18 961 36 961 54 961C72 961 90 961 108 961C126 961 144 961 162 961C180 961 198 961 216 961C234 961 252 961 270 961C288 961 306 961 324 961C342 961 360 961 378 961C396 961 414 961 432 961C450 961 468 961 486 961C504 961 522 961 531 961L540 961L540 882L531 875.7C522 869.3 504 856.7 486 850.3C468 844 450 844 432 847.2C414 850.3 396 856.7 378 859.8C360 863 342 863 324 861.3C306 859.7 288 856.3 270 859.5C252 862.7 234 872.3 216 877.2C198 882 180 882 162 882C144 882 126 882 108 875.7C90 869.3 72 856.7 54 850.3C36 844 18 844 9 844L0 844Z" fill="#c58100"></path></svg>